{"title":"Unknown 2011 TS AC3  XViD - IMAGiNE","uid":6191152,"size":1485923092,"categoryP":"video","categoryS":"movies","magnet":"?xt=urn:btih:83ac9fdc11acf69b4bbfbd4cd9be55e538182c22&amp;dn=Unknown+2011+TS+AC3++XViD+-+IMAGiNE&amp;tr=udp%3A%2F%2Ftracker.openbittorrent.com%3A80&amp;tr=udp%3A%2F%2Fopen.demonii.com%3A1337&amp;tr=udp%3A%2F%2Ftracker.coppersurfer.tk%3A6969&amp;tr=udp%3A%2F%2Fexodus.desync.com%3A6969","seeders":0,"leechers":0,"uploader":"sceneline","files":105,"time":1298248291,"description":"- &lt;a href=&quot;\nhttp://www.torrentkit.com&quot; rel=&quot;nofollow&quot; target=&quot;_NEW&quot;&gt;\nhttp://www.torrentkit.com&lt;/a&gt;        thanks for supporting with server cost,  &lt;a href=&quot;\nhttp://www.torrentkit.com&quot; rel=&quot;nofollow&quot; target=&quot;_NEW&quot;&gt;\nhttp://www.torrentkit.com&lt;/a&gt;       the fast  and The Hottest Private Tracker on the net\n\nPlease Seed back to make the speed Faster!!!\n\nand don't forget to visit      ...... www.torrentkit.com..........\n-[pre]  \n    *********** ****    ****      ***      ******** *********** ****    *** **********\n           *+*     +*+*+* *+*+*+   *+* *+*   *+*    *+*    *+*     *+*+*   *+* *+*        \n           +*+     +*+ +*+*+ +*+  +*+   +*+  +*+           +*+     *+*+*+  +*+ +*+        \n           +$+     +$+  +*+  +$+ +$++*++$++* *$*           +$+     +$+ +*+ +$+ +$++*++$  \n           +$+     +$+       +$+ +$+     +$+ +$+   +$+$    +$+     +$+  +$+$+$ +$+        \n           $+$     $+$       $+$ $+$     $+$ $+$    $+$    $+$     $+$   $+$+$ $+$        \n       $$$$$$$$$$$ $$$       $$$ $$$     $$$  $$$$$$$$ $$$$$$$$$$$ $$$    $$$$ $$$$$$$$$$     \n                                                \n\n\n\n                           Another Fine Release Brought to you from - IMAGiNE                   \n                                                 \n\n********************************************************************************************************************                                \n                               Unknown 2011 TS AC3  XViD -IMAGiNE\n********************************************************************************************************************\n\nRipper ...........:IMAGiNE                                          IMDB Rating.......:8.0/10                             \nVideo Codec.......:XVID                                             Release Date......:21/02/11\nAudio Codec.......:AC-3                                             Theatre Date......:18/02/11\nAudio Bitrate.....:128                                              Runtime...........:1h 47mn\nSubtitles.........:yes                                              Language..........:ENGLISH\nResolution........:720 x 304                                        IMDb URL..........:http://www.imdb.com/title/tt1401152/\n\n\n[color=yellow]DETAILS:[/color]\n\nVideo\nID                               : 0\nFormat                           : MPEG-4 Visual\nFormat profile                   : Advanced Simple@L5\nFormat settings, BVOP            : Yes\nFormat settings, QPel            : No\nFormat settings, GMC             : No warppoints\nFormat settings, Matrix          : Default (MPEG)\nMuxing mode                      : Packed bitstream\nCodec ID                         : XVID\nCodec ID/Hint                    : XviD\nDuration                         : 1h 47mn\nBit rate                         : 1 696 Kbps\nWidth                            : 720 pixels\nHeight                           : 304 pixels\nDisplay aspect ratio             : 2.35:1\nFrame rate                       : 25.000 fps\nColor space                      : YUV\nChroma subsampling               : 4:2:0\nBit depth                        : 8 bits\nScan type                        : Progressive\nBits/(Pixel*Frame)               : 0.310\nStream size                      : 1.28 GiB (92%)\nWriting library                  : XviD 1.2.1 (UTC 2008-12-04)\n\nAudio\nID                               : 1\nFormat                           : AC-3\nFormat/Info                      : Audio Coding 3\nMode extension                   : CM (complete main)\nCodec ID                         : 2000\nDuration                         : 1h 47mn\nBit rate mode                    : Constant\nBit rate                         : 128 Kbps\nChannel(s)                       : 2 channels\nChannel positions                : Front: L R\nSampling rate                    : 48.0 KHz\nBit depth                        : 16 bits\nStream size                      : 98.7 MiB (7%)\nAlignment                        : Aligned on interleaves\nInterleave, duration             : 40 ms (1.00 video frame)\nInterleave, preload duration     : 512 ms\n\n\n[color=yellow]SOURCES:[/color]\n\nVIDEO:  elektri4ka...Thanks  \nAUDIO:  Thanks matey  \n\n[color=yellow]NOTES:[/color]\n\nIMAGiNE bringing you another release.......... Unknown 2011\n\n\n\nHere we are with a nice encode of this one for you all. Now for the video we just made a script\ncontaining white balance,resize, rgb eq, sharpness, chroma, brightness, contrast ect. With the audio \nit was just a matter of syncing it to the video.\nFYI English hardcode subs for non english speaking parts...\nAnyway enjoy folks ....\n\n\n\n[color=yellow]SCREENS:[/color]\n\n\n\n[color=yellow]GREETS:[/color]\n\nFLAWL3SS,ViSiON,FUSiON,Rx,SecretMyth,BirdFlu,ELEKTRI4KA and Autotron\nAnd to all the other p2p grps past and present \n\n[COLOR=RED]Looking for these,syncers,cammers,silver supplier.....Have anything to offer????......\nContact us &lt;a class=&quot;__cf_email__&quot; href=&quot;/cdn-cgi/l/email-protection&quot; data-cfemail=&quot;bad3d7dbddd3d4dfddc8d5cfcafad2cfc9d2d7dbd3d694d9d5d7&quot;&gt;[email&amp;#160;protected]&lt;/a&gt;&lt;script cf-hash='f9e31' type=&quot;text/javascript&quot;&gt;\n/* &lt;![CDATA[ */!function(){try{var t=&quot;currentScript&quot;in document?document.currentScript:function(){for(var t=document.getElementsByTagName(&quot;script&quot;),e=t.length;e--;)if(t[e].getAttribute(&quot;cf-hash&quot;))return t[e]}();if(t&amp;&amp;t.previousSibling){var e,r,n,i,c=t.previousSibling,a=c.getAttribute(&quot;data-cfemail&quot;);if(a){for(e=&quot;&quot;,r=parseInt(a.substr(0,2),16),n=2;a.length-n;n+=2)i=parseInt(a.substr(n,2),16)^r,e+=String.fromCharCode(i);e=document.createTextNode(e),c.parentNode.replaceChild(e,c)}}}catch(u){}}();/* ]]&gt; */&lt;/script&gt;[/COLOR]","torrent":{"xt":"urn:btih:83ac9fdc11acf69b4bbfbd4cd9be55e538182c22","amp;dn":"Unknown+2011+TS+AC3++XViD+-+IMAGiNE","amp;tr":["udp%3A%2F%2Ftracker.openbittorrent.com%3A80","udp%3A%2F%2Fopen.demonii.com%3A1337","udp%3A%2F%2Ftracker.coppersurfer.tk%3A6969","udp%3A%2F%2Fexodus.desync.com%3A6969"],"infoHash":"83ac9fdc11acf69b4bbfbd4cd9be55e538182c22","infoHashBuffer":{"type":"Buffer","data":[131,172,159,220,17,172,246,155,75,191,189,76,217,190,85,229,56,24,44,34]},"announce":[],"urlList":[]}}